<mxfile host="app.diagrams.net" modified="2024-04-30T14:04:43.762Z" agent="Mozilla/5.0 (Windows NT 10.0; Win64; x64) AppleWebKit/537.36 (KHTML, like Gecko) Chrome/123.0.0.0 Safari/537.36" etag="8xN_g0xiqz_sjFhJWEF3" version="23.1.7" type="github">
  <diagram name="ページ1" id="pMJT4S8f1bZ-hsQULMVV">
    <mxGraphModel dx="1409" dy="1528" grid="1" gridSize="10" guides="1" tooltips="1" connect="1" arrows="1" fold="1" page="0" pageScale="1" pageWidth="1169" pageHeight="827" math="0" shadow="0">
      <root>
        <mxCell id="0" />
        <mxCell id="1" parent="0" />
        <mxCell id="vATlw5EspAVsC06aHHeY-28" value="" style="group" vertex="1" connectable="0" parent="1">
          <mxGeometry x="160" y="300" width="160" height="120" as="geometry" />
        </mxCell>
        <mxCell id="uX3gX1Yd2wXStUgI5bFz-10" value="Input (Update)" style="swimlane;fontStyle=1;align=center;verticalAlign=middle;childLayout=stackLayout;horizontal=1;startSize=40;horizontalStack=0;resizeParent=0;resizeLast=1;container=1;fontColor=#000000;collapsible=0;rounded=1;arcSize=30;strokeColor=#ff0000;fillColor=#ffffc0;swimlaneFillColor=#ffffc0;dropTarget=0;fontFamily=Lucida Console;" parent="vATlw5EspAVsC06aHHeY-28" vertex="1">
          <mxGeometry width="160" height="120" as="geometry" />
        </mxCell>
        <mxCell id="uX3gX1Yd2wXStUgI5bFz-13" value="input_from_&lt;br&gt;keyboard" style="rounded=1;whiteSpace=wrap;html=1;arcSize=40;fontColor=#000000;fillColor=#ffffc0;strokeColor=#ff0000;fontFamily=Lucida Console;" parent="vATlw5EspAVsC06aHHeY-28" vertex="1">
          <mxGeometry x="20" y="60" width="120" height="40" as="geometry" />
        </mxCell>
        <mxCell id="vATlw5EspAVsC06aHHeY-23" style="edgeStyle=none;curved=1;rounded=0;orthogonalLoop=1;jettySize=auto;html=1;exitX=0.5;exitY=0;exitDx=0;exitDy=0;fontSize=12;startSize=8;endSize=8;fontFamily=Lucida Console;" edge="1" parent="vATlw5EspAVsC06aHHeY-28" source="uX3gX1Yd2wXStUgI5bFz-10" target="uX3gX1Yd2wXStUgI5bFz-10">
          <mxGeometry relative="1" as="geometry" />
        </mxCell>
        <mxCell id="vATlw5EspAVsC06aHHeY-27" value="" style="group" vertex="1" connectable="0" parent="1">
          <mxGeometry x="400" y="230" width="160" height="190" as="geometry" />
        </mxCell>
        <mxCell id="uX3gX1Yd2wXStUgI5bFz-15" value="Calculate (OnEnter)" style="swimlane;fontStyle=1;align=center;verticalAlign=middle;childLayout=stackLayout;horizontal=1;startSize=40;horizontalStack=0;resizeParent=0;resizeLast=1;container=0;fontColor=#000000;collapsible=0;rounded=1;arcSize=30;strokeColor=#ff0000;fillColor=#ffffc0;swimlaneFillColor=#ffffc0;dropTarget=0;fontFamily=Lucida Console;" parent="vATlw5EspAVsC06aHHeY-27" vertex="1">
          <mxGeometry width="160" height="190" as="geometry" />
        </mxCell>
        <mxCell id="uX3gX1Yd2wXStUgI5bFz-16" value="handle_player_&lt;br&gt;input" style="rounded=1;whiteSpace=wrap;html=1;arcSize=40;fontColor=#000000;fillColor=#ffffc0;strokeColor=#ff0000;fontFamily=Lucida Console;" parent="vATlw5EspAVsC06aHHeY-27" vertex="1">
          <mxGeometry x="20" y="60" width="120" height="40" as="geometry" />
        </mxCell>
        <mxCell id="uX3gX1Yd2wXStUgI5bFz-17" value="" style="edgeStyle=orthogonalEdgeStyle;html=1;verticalAlign=bottom;endArrow=open;endSize=8;strokeColor=#ff0000;rounded=0;fontSize=12;fontFamily=Lucida Console;" parent="vATlw5EspAVsC06aHHeY-27" source="uX3gX1Yd2wXStUgI5bFz-16" target="uX3gX1Yd2wXStUgI5bFz-19" edge="1">
          <mxGeometry relative="1" as="geometry">
            <mxPoint x="180" y="60" as="targetPoint" />
          </mxGeometry>
        </mxCell>
        <mxCell id="uX3gX1Yd2wXStUgI5bFz-22" value="&lt;span style=&quot;background-color: rgb(255, 255, 192);&quot;&gt;SlicedMovementEvent&lt;/span&gt;" style="edgeLabel;html=1;align=center;verticalAlign=middle;resizable=0;points=[];fontSize=12;swimlaneFillColor=#ffffff;fontFamily=Lucida Console;" parent="uX3gX1Yd2wXStUgI5bFz-17" vertex="1" connectable="0">
          <mxGeometry x="0.0429" y="-2" relative="1" as="geometry">
            <mxPoint as="offset" />
          </mxGeometry>
        </mxCell>
        <mxCell id="uX3gX1Yd2wXStUgI5bFz-19" value="calc_sliced_&lt;br&gt;movenent" style="rounded=1;whiteSpace=wrap;html=1;arcSize=40;fontColor=#000000;fillColor=#ffffc0;strokeColor=#ff0000;fontFamily=Lucida Console;" parent="vATlw5EspAVsC06aHHeY-27" vertex="1">
          <mxGeometry x="20" y="130" width="120" height="40" as="geometry" />
        </mxCell>
        <mxCell id="vATlw5EspAVsC06aHHeY-24" value="" style="group;fontFamily=Lucida Console;" vertex="1" connectable="0" parent="1">
          <mxGeometry x="160" y="160" width="160" height="120" as="geometry" />
        </mxCell>
        <mxCell id="7LewiKTLVmGmOsxjct1--14" value="GameOver (OnEnter)" style="swimlane;fontStyle=1;align=center;verticalAlign=middle;childLayout=stackLayout;horizontal=1;startSize=40;horizontalStack=0;resizeParent=0;resizeLast=1;container=0;fontColor=#000000;collapsible=0;rounded=1;arcSize=30;strokeColor=#ff0000;fillColor=#ffffc0;swimlaneFillColor=#ffffc0;dropTarget=0;fontFamily=Lucida Console;" parent="vATlw5EspAVsC06aHHeY-24" vertex="1">
          <mxGeometry width="160" height="120" as="geometry" />
        </mxCell>
        <mxCell id="7LewiKTLVmGmOsxjct1--15" value="end_game" style="rounded=1;whiteSpace=wrap;html=1;arcSize=40;fontColor=#000000;fillColor=#ffffc0;strokeColor=#ff0000;fontFamily=Lucida Console;" parent="vATlw5EspAVsC06aHHeY-24" vertex="1">
          <mxGeometry x="20" y="60" width="120" height="40" as="geometry" />
        </mxCell>
        <mxCell id="vATlw5EspAVsC06aHHeY-25" value="" style="group;fontFamily=Lucida Console;" vertex="1" connectable="0" parent="1">
          <mxGeometry x="-80" y="160" width="160" height="260" as="geometry" />
        </mxCell>
        <mxCell id="7LewiKTLVmGmOsxjct1--1" value="Spawn (OnEnter)" style="swimlane;fontStyle=1;align=center;verticalAlign=middle;childLayout=stackLayout;horizontal=1;startSize=40;horizontalStack=0;resizeParent=0;resizeLast=1;container=0;fontColor=#000000;collapsible=0;rounded=1;arcSize=30;strokeColor=#ff0000;fillColor=#ffffc0;swimlaneFillColor=#ffffc0;dropTarget=0;fontFamily=Lucida Console;" parent="vATlw5EspAVsC06aHHeY-25" vertex="1">
          <mxGeometry width="160" height="260" as="geometry" />
        </mxCell>
        <mxCell id="7LewiKTLVmGmOsxjct1--3" value="create_&lt;br&gt;random_tile" style="rounded=1;whiteSpace=wrap;html=1;arcSize=40;fontColor=#000000;fillColor=#ffffc0;strokeColor=#ff0000;fontFamily=Lucida Console;" parent="vATlw5EspAVsC06aHHeY-25" vertex="1">
          <mxGeometry x="20" y="130" width="120" height="40" as="geometry" />
        </mxCell>
        <mxCell id="7LewiKTLVmGmOsxjct1--11" value="board is full" style="rhombus;whiteSpace=wrap;html=1;fontColor=#000000;fillColor=#ffffc0;strokeColor=#ff0000;fontFamily=Lucida Console;" parent="vATlw5EspAVsC06aHHeY-25" vertex="1">
          <mxGeometry x="20" y="60" width="120" height="40" as="geometry" />
        </mxCell>
        <mxCell id="7LewiKTLVmGmOsxjct1--13" value="&lt;span style=&quot;background-color: rgb(255, 255, 192);&quot;&gt;no&lt;/span&gt;" style="edgeStyle=orthogonalEdgeStyle;html=1;align=left;verticalAlign=top;endArrow=open;endSize=8;strokeColor=#ff0000;rounded=0;fontSize=12;dashed=1;fontFamily=Lucida Console;" parent="vATlw5EspAVsC06aHHeY-25" source="7LewiKTLVmGmOsxjct1--11" target="7LewiKTLVmGmOsxjct1--3" edge="1">
          <mxGeometry x="-1" relative="1" as="geometry">
            <mxPoint x="220" y="170" as="targetPoint" />
          </mxGeometry>
        </mxCell>
        <mxCell id="vATlw5EspAVsC06aHHeY-14" value="spawn_tiles" style="rounded=1;whiteSpace=wrap;html=1;arcSize=40;fontColor=#000000;fillColor=#ffffc0;strokeColor=#ff0000;fontFamily=Lucida Console;" vertex="1" parent="vATlw5EspAVsC06aHHeY-25">
          <mxGeometry x="20" y="200" width="120" height="40" as="geometry" />
        </mxCell>
        <mxCell id="vATlw5EspAVsC06aHHeY-17" value="" style="edgeStyle=orthogonalEdgeStyle;html=1;verticalAlign=bottom;endArrow=open;endSize=8;strokeColor=#ff0000;rounded=0;fontSize=12;exitX=0.5;exitY=1;exitDx=0;exitDy=0;fontFamily=Lucida Console;" edge="1" parent="vATlw5EspAVsC06aHHeY-25" source="7LewiKTLVmGmOsxjct1--3" target="vATlw5EspAVsC06aHHeY-14">
          <mxGeometry relative="1" as="geometry">
            <mxPoint x="280" y="310" as="targetPoint" />
            <mxPoint x="180" y="310" as="sourcePoint" />
          </mxGeometry>
        </mxCell>
        <mxCell id="vATlw5EspAVsC06aHHeY-18" value="&lt;font&gt;TileSpawnEvent&lt;/font&gt;" style="edgeLabel;html=1;align=center;verticalAlign=middle;resizable=0;points=[];fontSize=12;labelBackgroundColor=#ffffc0;fontFamily=Lucida Console;" vertex="1" connectable="0" parent="vATlw5EspAVsC06aHHeY-17">
          <mxGeometry x="-0.0846" y="2" relative="1" as="geometry">
            <mxPoint as="offset" />
          </mxGeometry>
        </mxCell>
        <mxCell id="vATlw5EspAVsC06aHHeY-26" value="" style="group;fontFamily=Lucida Console;" vertex="1" connectable="0" parent="1">
          <mxGeometry x="-320" y="160" width="160" height="260" as="geometry" />
        </mxCell>
        <mxCell id="vATlw5EspAVsC06aHHeY-1" value="(Startup)" style="swimlane;fontStyle=1;align=center;verticalAlign=middle;childLayout=stackLayout;horizontal=1;startSize=40;horizontalStack=0;resizeParent=0;resizeLast=1;container=0;fontColor=#000000;collapsible=0;rounded=1;arcSize=30;strokeColor=#ff0000;fillColor=#ffffc0;swimlaneFillColor=#ffffc0;dropTarget=0;fontFamily=Lucida Console;" vertex="1" parent="vATlw5EspAVsC06aHHeY-26">
          <mxGeometry width="160" height="260" as="geometry" />
        </mxCell>
        <mxCell id="vATlw5EspAVsC06aHHeY-5" value="setup" style="rounded=1;whiteSpace=wrap;html=1;arcSize=40;fontColor=#000000;fillColor=#ffffc0;strokeColor=#ff0000;fontFamily=Lucida Console;" vertex="1" parent="vATlw5EspAVsC06aHHeY-26">
          <mxGeometry x="20" y="60" width="120" height="40" as="geometry" />
        </mxCell>
        <mxCell id="vATlw5EspAVsC06aHHeY-6" value="" style="edgeStyle=orthogonalEdgeStyle;html=1;verticalAlign=bottom;endArrow=open;endSize=8;strokeColor=#ff0000;rounded=0;fontSize=12;dashed=1;fontFamily=Lucida Console;" edge="1" source="vATlw5EspAVsC06aHHeY-5" parent="vATlw5EspAVsC06aHHeY-26" target="vATlw5EspAVsC06aHHeY-8">
          <mxGeometry relative="1" as="geometry">
            <mxPoint x="240" y="80" as="targetPoint" />
          </mxGeometry>
        </mxCell>
        <mxCell id="vATlw5EspAVsC06aHHeY-8" value="create_&lt;br&gt;main_board" style="rounded=1;whiteSpace=wrap;html=1;arcSize=40;fontColor=#000000;fillColor=#ffffc0;strokeColor=#ff0000;fontFamily=Lucida Console;" vertex="1" parent="vATlw5EspAVsC06aHHeY-26">
          <mxGeometry x="20" y="130" width="120" height="40" as="geometry" />
        </mxCell>
        <mxCell id="vATlw5EspAVsC06aHHeY-9" value="" style="edgeStyle=orthogonalEdgeStyle;html=1;verticalAlign=bottom;endArrow=open;endSize=8;strokeColor=#ff0000;rounded=0;fontSize=12;dashed=1;fontFamily=Lucida Console;" edge="1" source="vATlw5EspAVsC06aHHeY-8" parent="vATlw5EspAVsC06aHHeY-26" target="vATlw5EspAVsC06aHHeY-11">
          <mxGeometry relative="1" as="geometry">
            <mxPoint x="240" y="140" as="targetPoint" />
          </mxGeometry>
        </mxCell>
        <mxCell id="vATlw5EspAVsC06aHHeY-11" value="create_&lt;br&gt;score_board" style="rounded=1;whiteSpace=wrap;html=1;arcSize=40;fontColor=#000000;fillColor=#ffffc0;strokeColor=#ff0000;fontFamily=Lucida Console;" vertex="1" parent="vATlw5EspAVsC06aHHeY-26">
          <mxGeometry x="20" y="200" width="120" height="40" as="geometry" />
        </mxCell>
        <mxCell id="uX3gX1Yd2wXStUgI5bFz-23" value="Movement (OnEnter)" style="swimlane;fontStyle=1;align=center;verticalAlign=middle;childLayout=stackLayout;horizontal=1;startSize=40;horizontalStack=0;resizeParent=0;resizeLast=1;container=0;fontColor=#000000;collapsible=0;rounded=1;arcSize=30;strokeColor=#ff0000;fillColor=#ffffc0;swimlaneFillColor=#ffffc0;dropTarget=0;fontFamily=Lucida Console;" parent="1" vertex="1">
          <mxGeometry x="640" y="200" width="160" height="220" as="geometry" />
        </mxCell>
        <mxCell id="uX3gX1Yd2wXStUgI5bFz-14" value="" style="edgeStyle=elbowEdgeStyle;html=1;verticalAlign=bottom;endArrow=open;endSize=8;strokeColor=#ff0000;rounded=0;fontSize=12;fontFamily=Lucida Console;" parent="1" source="uX3gX1Yd2wXStUgI5bFz-13" target="uX3gX1Yd2wXStUgI5bFz-16" edge="1">
          <mxGeometry relative="1" as="geometry">
            <mxPoint x="360" y="500" as="targetPoint" />
          </mxGeometry>
        </mxCell>
        <mxCell id="uX3gX1Yd2wXStUgI5bFz-18" value="Player&lt;br&gt;Input&lt;br&gt;Event" style="edgeLabel;html=1;align=center;verticalAlign=middle;resizable=0;points=[];fontSize=12;fontFamily=Lucida Console;" parent="uX3gX1Yd2wXStUgI5bFz-14" vertex="1" connectable="0">
          <mxGeometry x="-0.0962" y="1" relative="1" as="geometry">
            <mxPoint x="1" y="-3" as="offset" />
          </mxGeometry>
        </mxCell>
        <mxCell id="uX3gX1Yd2wXStUgI5bFz-20" value="" style="html=1;verticalAlign=bottom;endArrow=open;endSize=8;strokeColor=#ff0000;rounded=0;fontSize=12;edgeStyle=elbowEdgeStyle;fontFamily=Lucida Console;" parent="1" source="uX3gX1Yd2wXStUgI5bFz-19" target="uX3gX1Yd2wXStUgI5bFz-24" edge="1">
          <mxGeometry relative="1" as="geometry">
            <mxPoint x="520" y="640" as="targetPoint" />
          </mxGeometry>
        </mxCell>
        <mxCell id="uX3gX1Yd2wXStUgI5bFz-21" value="&lt;font&gt;Tile&lt;br&gt;Movement&lt;br&gt;Event&lt;br&gt;&lt;/font&gt;" style="edgeLabel;html=1;align=center;verticalAlign=middle;resizable=0;points=[];fontSize=12;fontFamily=Lucida Console;" parent="uX3gX1Yd2wXStUgI5bFz-20" vertex="1" connectable="0">
          <mxGeometry x="-0.0846" y="2" relative="1" as="geometry">
            <mxPoint as="offset" />
          </mxGeometry>
        </mxCell>
        <mxCell id="uX3gX1Yd2wXStUgI5bFz-24" value="move_tiles" style="rounded=1;whiteSpace=wrap;html=1;arcSize=40;fontColor=#000000;fillColor=#ffffc0;strokeColor=#ff0000;fontFamily=Lucida Console;" parent="1" vertex="1">
          <mxGeometry x="660" y="260" width="120" height="40" as="geometry" />
        </mxCell>
        <mxCell id="uX3gX1Yd2wXStUgI5bFz-25" value="" style="edgeStyle=orthogonalEdgeStyle;html=1;verticalAlign=bottom;endArrow=open;endSize=8;strokeColor=#ff0000;rounded=0;fontSize=12;fontFamily=Lucida Console;dashed=1;" parent="1" source="uX3gX1Yd2wXStUgI5bFz-24" target="uX3gX1Yd2wXStUgI5bFz-27" edge="1">
          <mxGeometry relative="1" as="geometry">
            <mxPoint x="880" y="280" as="targetPoint" />
          </mxGeometry>
        </mxCell>
        <mxCell id="uX3gX1Yd2wXStUgI5bFz-26" value="&lt;font&gt;Changed&amp;lt;Tile&amp;gt; Or&lt;br&gt;Changed&amp;lt;Position&amp;gt;&lt;br&gt;&lt;/font&gt;" style="edgeLabel;html=1;align=center;verticalAlign=middle;resizable=0;points=[];fontSize=12;labelBackgroundColor=#ffffc0;fontFamily=Lucida Console;" parent="uX3gX1Yd2wXStUgI5bFz-25" vertex="1" connectable="0">
          <mxGeometry x="-0.0846" y="2" relative="1" as="geometry">
            <mxPoint as="offset" />
          </mxGeometry>
        </mxCell>
        <mxCell id="uX3gX1Yd2wXStUgI5bFz-27" value="update_tiles" style="rounded=1;whiteSpace=wrap;html=1;arcSize=40;fontColor=#000000;fillColor=#ffffc0;strokeColor=#ff0000;fontFamily=Lucida Console;" parent="1" vertex="1">
          <mxGeometry x="660" y="360" width="120" height="40" as="geometry" />
        </mxCell>
        <mxCell id="7LewiKTLVmGmOsxjct1--12" value="&lt;span style=&quot;&quot;&gt;yes&lt;/span&gt;" style="html=1;align=left;verticalAlign=bottom;endArrow=open;endSize=8;strokeColor=#ff0000;rounded=0;fontSize=12;dashed=1;edgeStyle=elbowEdgeStyle;labelBackgroundColor=none;fontFamily=Lucida Console;" parent="1" source="7LewiKTLVmGmOsxjct1--11" target="7LewiKTLVmGmOsxjct1--15" edge="1">
          <mxGeometry x="-0.6667" relative="1" as="geometry">
            <mxPoint x="120" y="220" as="targetPoint" />
            <mxPoint as="offset" />
          </mxGeometry>
        </mxCell>
        <mxCell id="7LewiKTLVmGmOsxjct1--16" value="" style="html=1;verticalAlign=bottom;endArrow=open;endSize=8;strokeColor=#ff0000;rounded=0;fontSize=12;fontFamily=Lucida Console;edgeStyle=elbowEdgeStyle;" parent="1" source="7LewiKTLVmGmOsxjct1--15" target="7LewiKTLVmGmOsxjct1--18" edge="1">
          <mxGeometry relative="1" as="geometry">
            <mxPoint x="390" y="230" as="targetPoint" />
          </mxGeometry>
        </mxCell>
        <mxCell id="7LewiKTLVmGmOsxjct1--18" value="" style="ellipse;html=1;shape=endState;fillColor=#000000;strokeColor=#ff0000;fontFamily=Lucida Console;" parent="1" vertex="1">
          <mxGeometry x="340" y="220" width="40" height="40" as="geometry" />
        </mxCell>
        <mxCell id="7LewiKTLVmGmOsxjct1--19" value="" style="ellipse;html=1;shape=startState;fillColor=#000000;strokeColor=#ff0000;fontFamily=Lucida Console;" parent="1" vertex="1">
          <mxGeometry x="-400" y="220" width="40" height="40" as="geometry" />
        </mxCell>
        <mxCell id="7LewiKTLVmGmOsxjct1--20" value="" style="html=1;verticalAlign=bottom;endArrow=open;strokeColor=#ff0000;rounded=0;fontSize=12;edgeStyle=elbowEdgeStyle;fontFamily=Lucida Console;" parent="1" source="7LewiKTLVmGmOsxjct1--19" edge="1" target="vATlw5EspAVsC06aHHeY-5">
          <mxGeometry relative="1" as="geometry">
            <mxPoint x="-250" y="325" as="targetPoint" />
          </mxGeometry>
        </mxCell>
        <mxCell id="vATlw5EspAVsC06aHHeY-13" value="" style="edgeStyle=elbowEdgeStyle;html=1;verticalAlign=bottom;endArrow=open;endSize=8;strokeColor=#ff0000;rounded=0;fontSize=12;dashed=1;fontFamily=Lucida Console;" edge="1" parent="1" source="vATlw5EspAVsC06aHHeY-11" target="7LewiKTLVmGmOsxjct1--11">
          <mxGeometry relative="1" as="geometry">
            <mxPoint x="-100" y="210" as="targetPoint" />
            <mxPoint x="-230" y="320" as="sourcePoint" />
          </mxGeometry>
        </mxCell>
        <mxCell id="vATlw5EspAVsC06aHHeY-15" value="" style="edgeStyle=orthogonalEdgeStyle;html=1;verticalAlign=bottom;endArrow=open;endSize=8;strokeColor=#ff0000;rounded=0;fontSize=12;dashed=1;fontFamily=Lucida Console;" edge="1" source="vATlw5EspAVsC06aHHeY-14" parent="1" target="uX3gX1Yd2wXStUgI5bFz-13">
          <mxGeometry relative="1" as="geometry">
            <mxPoint x="190" y="460" as="targetPoint" />
          </mxGeometry>
        </mxCell>
        <mxCell id="vATlw5EspAVsC06aHHeY-29" value="" style="edgeStyle=orthogonalEdgeStyle;html=1;verticalAlign=bottom;endArrow=open;endSize=8;strokeColor=#ff0000;rounded=0;fontSize=12;dashed=1;fontFamily=Lucida Console;" edge="1" parent="1" source="uX3gX1Yd2wXStUgI5bFz-27" target="7LewiKTLVmGmOsxjct1--11">
          <mxGeometry relative="1" as="geometry">
            <mxPoint x="-50" y="250" as="targetPoint" />
            <mxPoint x="-170" y="390" as="sourcePoint" />
            <Array as="points">
              <mxPoint x="840" y="380" />
              <mxPoint x="840" y="120" />
              <mxPoint x="-120" y="120" />
              <mxPoint x="-120" y="210" />
              <mxPoint y="210" />
            </Array>
          </mxGeometry>
        </mxCell>
      </root>
    </mxGraphModel>
  </diagram>
</mxfile>
